# xmcd CD database file
#
# Track frame offsets:
#	150
#	13830
#	31670
#	47444
#	69620
#	95497
#	111703
#	126694
#	144240
#	167239
#	199316
#
# Disc length: 2915 seconds
#
# Revision: 0
# Processed by: cddbd v1.5.1PL0 Copyright (c) Steve Scherf et al.
# Submitted via: CDex 1.51
#
DISCID=a20b610b
DTITLE=Jazz-club Limburg - Let´s go
DYEAR=1997
DGENRE=Jazz
TTITLE0=Let´s go
TTITLE1=Beyond the sea
TTITLE2=Fatman Boogie
TTITLE3=Brass Machine
TTITLE4=Pots and Pans
TTITLE5=Wind Machine
TTITLE6=Aqua de Beber
TTITLE7=Ragtag and Bobtail
TTITLE8=Thing ain´t what they used to be
TTITLE9=A long time ago
TTITLE10=It´s oh so nice
EXTD=YEAR: 1997
EXTT0=
EXTT1=
EXTT2=
EXTT3=
EXTT4=
EXTT5=
EXTT6=
EXTT7=
EXTT8=
EXTT9=
EXTT10=
PLAYORDER=
